<svg width="512" height="512" viewBox="0 0 512 512" fill="none" xmlns="http://www.w3.org/2000/svg">
<path d="M0 256C0 114.615 114.615 0 256 0C397.385 0 512 114.615 512 256C512 397.385 397.385 512 256 512C114.615 512 0 397.385 0 256Z" fill="#F5E78E" fill-opacity="0.5"/>
<path d="M352 192C352 217.461 341.886 241.879 323.882 259.882C305.879 277.886 281.461 288 256 288C230.539 288 206.121 277.886 188.118 259.882C170.114 241.879 160 217.461 160 192C160 166.539 170.114 142.121 188.118 124.118C206.121 106.114 230.539 96 256 96C281.461 96 305.879 106.114 323.882 124.118C341.886 142.121 352 166.539 352 192Z" fill="#F5E78E"/>
<path fill-rule="evenodd" clip-rule="evenodd" d="M0 256C0 188.105 26.9714 122.99 74.9807 74.9807C122.99 26.9714 188.105 0 256 0C323.895 0 389.01 26.9714 437.019 74.9807C485.029 122.99 512 188.105 512 256C512 323.895 485.029 389.01 437.019 437.019C389.01 485.029 323.895 512 256 512C188.105 512 122.99 485.029 74.9807 437.019C26.9714 389.01 0 323.895 0 256ZM256 32C213.817 32.0022 172.492 43.9156 136.781 66.3689C101.07 88.8222 72.425 120.903 54.1429 158.918C35.8607 196.934 28.6844 239.339 33.4399 281.253C38.1955 323.167 54.6897 362.887 81.024 395.84C103.744 359.232 153.76 320 256 320C358.24 320 408.224 359.2 430.976 395.84C457.31 362.887 473.804 323.167 478.56 281.253C483.316 239.339 476.139 196.934 457.857 158.918C439.575 120.903 410.93 88.8222 375.219 66.3689C339.508 43.9156 298.183 32.0022 256 32Z" fill="#F5E78E"/>
</svg>
