<svg width="512" height="512" viewBox="0 0 512 512" fill="none" xmlns="http://www.w3.org/2000/svg">
<g clip-path="url(#clip0_1280_167)">
<path d="M271.059 240.941H240.941V271.059H271.059V240.941Z" fill="#F5E78E"/>
<path d="M240.942 240.941H210.824V271.059H240.942V240.941Z" fill="#F5E78E"/>
<path d="M271.059 271.059H240.941V301.176H271.059V271.059Z" fill="#F5E78E"/>
<path d="M301.176 271.059H271.059V301.176H301.176V271.059Z" fill="#FEB8D2"/>
<path d="M301.176 210.824H271.059V240.942H301.176V210.824Z" fill="#FEB8D2"/>
<path d="M240.942 271.059H210.824V301.176H240.942V271.059Z" fill="#FEB8D2"/>
<path d="M240.942 210.824H210.824V240.942H240.942V210.824Z" fill="#FEB8D2"/>
<path d="M331.293 180.705H301.176V210.823H331.293V180.705Z" fill="#FEB8D2"/>
<path d="M331.293 301.176H301.176V331.293H331.293V301.176Z" fill="#FEB8D2"/>
<path d="M361.413 331.295H331.295V361.413H361.413V331.295Z" fill="#FEB8D2"/>
<path d="M361.413 150.588H331.295V180.706H361.413V150.588Z" fill="#FEB8D2"/>
<path d="M180.706 150.588H150.588V180.706H180.706V150.588Z" fill="#FEB8D2"/>
<path d="M180.706 120.471H150.588V150.588H180.706V120.471Z" fill="white"/>
<path d="M180.706 90.3535H150.588V120.471H180.706V90.3535Z" fill="white"/>
<path d="M180.706 60.2344H150.588V90.352H180.706V60.2344Z" fill="white"/>
<path d="M210.823 150.588H180.705V180.706H210.823V150.588Z" fill="white"/>
<path d="M240.942 150.588H210.824V180.706H240.942V150.588Z" fill="white"/>
<path d="M240.942 120.471H210.824V150.588H240.942V120.471Z" fill="white"/>
<path d="M210.823 120.471H180.705V150.588H210.823V120.471Z" fill="white"/>
<path d="M210.823 90.3535H180.705V120.471H210.823V90.3535Z" fill="white"/>
<path d="M210.823 60.2344H180.705V90.352H210.823V60.2344Z" fill="white"/>
<path d="M210.823 30.1172H180.705V60.2348H210.823V30.1172Z" fill="white"/>
<path d="M240.942 30.1172H210.824V60.2348H240.942V30.1172Z" fill="white"/>
<path d="M240.942 60.2344H210.824V90.352H240.942V60.2344Z" fill="white"/>
<path d="M240.942 90.3535H210.824V120.471H240.942V90.3535Z" fill="white"/>
<path d="M271.059 90.3535H240.941V120.471H271.059V90.3535Z" fill="white"/>
<path d="M301.176 30.1172H271.059V60.2348H301.176V30.1172Z" fill="white"/>
<path d="M331.293 30.1172H301.176V60.2348H331.293V30.1172Z" fill="white"/>
<path d="M301.176 60.2344H271.059V90.352H301.176V60.2344Z" fill="white"/>
<path d="M331.293 60.2344H301.176V90.352H331.293V60.2344Z" fill="white"/>
<path d="M361.413 60.2344H331.295V90.352H361.413V60.2344Z" fill="white"/>
<path d="M301.176 90.3535H271.059V120.471H301.176V90.3535Z" fill="white"/>
<path d="M331.293 90.3535H301.176V120.471H331.293V90.3535Z" fill="white"/>
<path d="M361.413 90.3535H331.295V120.471H361.413V90.3535Z" fill="white"/>
<path d="M361.413 120.471H331.295V150.588H361.413V120.471Z" fill="white"/>
<path d="M331.293 120.471H301.176V150.588H331.293V120.471Z" fill="white"/>
<path d="M301.176 120.471H271.059V150.588H301.176V120.471Z" fill="white"/>
<path d="M331.293 150.588H301.176V180.706H331.293V150.588Z" fill="white"/>
<path d="M301.176 150.588H271.059V180.706H301.176V150.588Z" fill="white"/>
<path d="M90.352 150.588H60.2344V180.706H90.352V150.588Z" fill="white"/>
<path d="M180.706 210.824H150.588V240.942H180.706V210.824Z" fill="white"/>
<path d="M180.706 180.705H150.588V210.823H180.706V180.705Z" fill="white"/>
<path d="M150.588 150.588H120.471V180.706H150.588V150.588Z" fill="white"/>
<path d="M120.471 150.588H90.3535V180.706H120.471V150.588Z" fill="white"/>
<path d="M180.706 301.176H150.588V331.293H180.706V301.176Z" fill="white"/>
<path d="M180.706 271.059H150.588V301.176H180.706V271.059Z" fill="white"/>
<path d="M150.588 180.705H120.471V210.823H150.588V180.705Z" fill="white"/>
<path d="M120.471 180.705H90.3535V210.823H120.471V180.705Z" fill="white"/>
<path d="M90.352 180.705H60.2344V210.823H90.352V180.705Z" fill="white"/>
<path d="M60.2348 180.705H30.1172V210.823H60.2348V180.705Z" fill="white"/>
<path d="M60.2348 210.824H30.1172V240.942H60.2348V210.824Z" fill="white"/>
<path d="M90.352 210.824H60.2344V240.942H90.352V210.824Z" fill="white"/>
<path d="M120.471 210.824H90.3535V240.942H120.471V210.824Z" fill="white"/>
<path d="M150.588 210.824H120.471V240.942H150.588V210.824Z" fill="white"/>
<path d="M120.471 240.941H90.3535V271.059H120.471V240.941Z" fill="white"/>
<path d="M150.588 271.059H120.471V301.176H150.588V271.059Z" fill="white"/>
<path d="M150.588 301.176H120.471V331.293H150.588V301.176Z" fill="white"/>
<path d="M150.588 331.295H120.471V361.413H150.588V331.295Z" fill="white"/>
<path d="M210.823 331.295H180.705V361.413H210.823V331.295Z" fill="white"/>
<path d="M240.942 331.295H210.824V361.413H240.942V331.295Z" fill="white"/>
<path d="M240.942 361.412H210.824V391.53H240.942V361.412Z" fill="white"/>
<path d="M180.706 361.412H150.588V391.53H180.706V361.412Z" fill="white"/>
<path d="M210.823 361.412H180.705V391.53H210.823V361.412Z" fill="white"/>
<path d="M180.706 391.529H150.588V421.647H180.706V391.529Z" fill="white"/>
<path d="M180.706 421.646H150.588V451.764H180.706V421.646Z" fill="white"/>
<path d="M210.823 451.766H180.705V481.883H210.823V451.766Z" fill="white"/>
<path d="M210.823 391.529H180.705V421.647H210.823V391.529Z" fill="white"/>
<path d="M210.823 421.646H180.705V451.764H210.823V421.646Z" fill="white"/>
<path d="M240.942 391.529H210.824V421.647H240.942V391.529Z" fill="white"/>
<path d="M240.942 421.646H210.824V451.764H240.942V421.646Z" fill="white"/>
<path d="M240.942 451.766H210.824V481.883H240.942V451.766Z" fill="white"/>
<path d="M271.059 391.529H240.941V421.647H271.059V391.529Z" fill="white"/>
<path d="M301.176 331.295H271.059V361.413H301.176V331.295Z" fill="white"/>
<path d="M331.293 331.295H301.176V361.413H331.293V331.295Z" fill="white"/>
<path d="M301.176 361.412H271.059V391.53H301.176V361.412Z" fill="white"/>
<path d="M331.293 361.412H301.176V391.53H331.293V361.412Z" fill="white"/>
<path d="M361.413 361.412H331.295V391.53H361.413V361.412Z" fill="white"/>
<path d="M301.176 391.529H271.059V421.647H301.176V391.529Z" fill="white"/>
<path d="M331.293 391.529H301.176V421.647H331.293V391.529Z" fill="white"/>
<path d="M361.413 391.529H331.295V421.647H361.413V391.529Z" fill="white"/>
<path d="M361.413 421.646H331.295V451.764H361.413V421.646Z" fill="white"/>
<path d="M331.293 421.646H301.176V451.764H331.293V421.646Z" fill="white"/>
<path d="M301.176 421.646H271.059V451.764H301.176V421.646Z" fill="white"/>
<path d="M331.293 451.766H301.176V481.883H331.293V451.766Z" fill="white"/>
<path d="M301.176 451.766H271.059V481.883H301.176V451.766Z" fill="white"/>
<path d="M361.413 271.059H331.295V301.176H361.413V271.059Z" fill="white"/>
<path d="M361.413 301.176H331.295V331.293H361.413V301.176Z" fill="white"/>
<path d="M421.647 240.941H391.529V271.059H421.647V240.941Z" fill="white"/>
<path d="M391.53 271.059H361.412V301.176H391.53V271.059Z" fill="white"/>
<path d="M421.647 271.059H391.529V301.176H421.647V271.059Z" fill="white"/>
<path d="M451.764 271.059H421.646V301.176H451.764V271.059Z" fill="white"/>
<path d="M481.883 271.059H451.766V301.176H481.883V271.059Z" fill="white"/>
<path d="M391.53 301.176H361.412V331.293H391.53V301.176Z" fill="white"/>
<path d="M421.647 301.176H391.529V331.293H421.647V301.176Z" fill="white"/>
<path d="M451.764 301.176H421.646V331.293H451.764V301.176Z" fill="white"/>
<path d="M481.883 301.176H451.766V331.293H481.883V301.176Z" fill="white"/>
<path d="M391.53 331.295H361.412V361.413H391.53V331.295Z" fill="white"/>
<path d="M421.647 331.295H391.529V361.413H421.647V331.295Z" fill="white"/>
<path d="M451.764 331.295H421.646V361.413H451.764V331.295Z" fill="white"/>
<path d="M361.413 210.824H331.295V240.942H361.413V210.824Z" fill="white"/>
<path d="M391.53 210.824H361.412V240.942H391.53V210.824Z" fill="white"/>
<path d="M361.413 180.705H331.295V210.823H361.413V180.705Z" fill="white"/>
<path d="M391.53 150.588H361.412V180.706H391.53V150.588Z" fill="white"/>
<path d="M391.53 180.705H361.412V210.823H391.53V180.705Z" fill="white"/>
<path d="M421.647 150.588H391.529V180.706H421.647V150.588Z" fill="white"/>
<path d="M451.764 150.588H421.646V180.706H451.764V150.588Z" fill="white"/>
<path d="M421.647 180.705H391.529V210.823H421.647V180.705Z" fill="white"/>
<path d="M451.764 180.705H421.646V210.823H451.764V180.705Z" fill="white"/>
<path d="M481.883 180.705H451.766V210.823H481.883V180.705Z" fill="white"/>
<path d="M481.883 210.824H451.766V240.942H481.883V210.824Z" fill="white"/>
<path d="M451.764 210.824H421.646V240.942H451.764V210.824Z" fill="white"/>
<path d="M421.647 210.824H391.529V240.942H421.647V210.824Z" fill="white"/>
<path d="M361.413 271.059H331.295V301.176H361.413V271.059Z" fill="white"/>
<path d="M120.471 271.059H90.3535V301.176H120.471V271.059Z" fill="white"/>
<path d="M90.352 271.059H60.2344V301.176H90.352V271.059Z" fill="white"/>
<path d="M60.2348 271.059H30.1172V301.176H60.2348V271.059Z" fill="white"/>
<path d="M60.2348 301.176H30.1172V331.293H60.2348V301.176Z" fill="white"/>
<path d="M90.352 301.176H60.2344V331.293H90.352V301.176Z" fill="white"/>
<path d="M120.471 301.176H90.3535V331.293H120.471V301.176Z" fill="white"/>
<path d="M90.352 331.295H60.2344V361.413H90.352V331.295Z" fill="white"/>
<path d="M120.471 331.295H90.3535V361.413H120.471V331.295Z" fill="white"/>
<path d="M180.706 331.295H150.588V361.413H180.706V331.295Z" fill="#FEB8D2"/>
<path d="M391.53 361.412H361.412V391.53H391.53V361.412Z" fill="#FEB8D2"/>
<path d="M421.647 361.412H391.529V391.53H421.647V361.412Z" fill="#FEB8D2"/>
<path d="M451.764 361.412H421.646V391.53H451.764V361.412Z" fill="#FEB8D2"/>
<path d="M391.53 391.529H361.412V421.647H391.53V391.529Z" fill="#FEB8D2"/>
<path d="M391.53 421.646H361.412V451.764H391.53V421.646Z" fill="#FEB8D2"/>
<path d="M391.53 120.471H361.412V150.588H391.53V120.471Z" fill="#FEB8D2"/>
<path d="M421.647 120.471H391.529V150.588H421.647V120.471Z" fill="#FEB8D2"/>
<path d="M451.764 120.471H421.646V150.588H451.764V120.471Z" fill="#FEB8D2"/>
<path d="M391.53 90.3535H361.412V120.471H391.53V90.3535Z" fill="#FEB8D2"/>
<path d="M391.53 60.2344H361.412V90.352H391.53V60.2344Z" fill="#FEB8D2"/>
<path d="M150.588 120.471H120.471V150.588H150.588V120.471Z" fill="#FEB8D2"/>
<path d="M150.588 90.3535H120.471V120.471H150.588V90.3535Z" fill="#FEB8D2"/>
<path d="M150.588 60.2344H120.471V90.352H150.588V60.2344Z" fill="#FEB8D2"/>
<path d="M120.471 120.471H90.3535V150.588H120.471V120.471Z" fill="#FEB8D2"/>
<path d="M90.352 120.471H60.2344V150.588H90.352V120.471Z" fill="#FEB8D2"/>
<path d="M150.588 361.412H120.471V391.53H150.588V361.412Z" fill="#FEB8D2"/>
<path d="M150.588 391.529H120.471V421.647H150.588V391.529Z" fill="#FEB8D2"/>
<path d="M150.588 421.646H120.471V451.764H150.588V421.646Z" fill="#FEB8D2"/>
<path d="M120.471 361.412H90.3535V391.53H120.471V361.412Z" fill="#FEB8D2"/>
<path d="M90.352 361.412H60.2344V391.53H90.352V361.412Z" fill="#FEB8D2"/>
<path d="M60.2348 331.295H30.1172V361.413H60.2348V331.295Z" fill="#FEB8D2"/>
<path d="M180.706 451.766H150.588V481.883H180.706V451.766Z" fill="#FEB8D2"/>
<path d="M361.413 451.766H331.295V481.883H361.413V451.766Z" fill="#FEB8D2"/>
<path d="M481.883 331.295H451.766V361.413H481.883V331.295Z" fill="#FEB8D2"/>
<path d="M481.883 150.588H451.766V180.706H481.883V150.588Z" fill="#FEB8D2"/>
<path d="M361.413 30.1172H331.295V60.2348H361.413V30.1172Z" fill="#FEB8D2"/>
<path d="M180.706 30.1172H150.588V60.2348H180.706V30.1172Z" fill="#FEB8D2"/>
<path d="M60.2348 150.588H30.1172V180.706H60.2348V150.588Z" fill="#FEB8D2"/>
<path d="M421.647 391.529H391.529V421.647H421.647V391.529Z" fill="#619D29"/>
<path d="M451.764 391.529H421.646V421.647H451.764V391.529Z" fill="#B5E48A"/>
<path d="M451.764 90.3535H421.646V120.471H451.764V90.3535Z" fill="#B5E48A"/>
<path d="M421.647 60.2344H391.529V90.352H421.647V60.2344Z" fill="#B5E48A"/>
<path d="M451.764 60.2344H421.646V90.352H451.764V60.2344Z" fill="#B5E48A"/>
<path d="M90.352 391.529H60.2344V421.647H90.352V391.529Z" fill="#B5E48A"/>
<path d="M90.352 421.646H60.2344V451.764H90.352V421.646Z" fill="#B5E48A"/>
<path d="M120.471 421.646H90.3535V451.764H120.471V421.646Z" fill="#B5E48A"/>
<path d="M90.352 90.3535H60.2344V120.471H90.352V90.3535Z" fill="#B5E48A"/>
<path d="M90.352 60.2344H60.2344V90.352H90.352V60.2344Z" fill="#B5E48A"/>
<path d="M120.471 60.2344H90.3535V90.352H120.471V60.2344Z" fill="#B5E48A"/>
<path d="M451.764 421.646H421.646V451.764H451.764V421.646Z" fill="#B5E48A"/>
<path d="M421.647 421.646H391.529V451.764H421.647V421.646Z" fill="#B5E48A"/>
<path d="M421.647 90.3535H391.529V120.471H421.647V90.3535Z" fill="#619D29"/>
<path d="M120.471 391.529H90.3535V421.647H120.471V391.529Z" fill="#619D29"/>
<path d="M120.471 90.3535H90.3535V120.471H120.471V90.3535Z" fill="#619D29"/>
<path d="M481.883 240.941H451.766V271.059H481.883V240.941Z" fill="#FEB8D2"/>
<path d="M271.059 451.766H240.941V481.883H271.059V451.766Z" fill="#FEB8D2"/>
<path d="M271.059 30.1172H240.941V60.2348H271.059V30.1172Z" fill="#FEB8D2"/>
<path d="M60.2348 240.941H30.1172V271.059H60.2348V240.941Z" fill="#FEB8D2"/>
<path d="M512 271.059H481.883V301.176H512V271.059Z" fill="#FEB8D2"/>
<path d="M512 301.176H481.883V331.293H512V301.176Z" fill="#FEB8D2"/>
<path d="M512 210.824H481.883V240.942H512V210.824Z" fill="#FEB8D2"/>
<path d="M512 180.705H481.883V210.823H512V180.705Z" fill="#FEB8D2"/>
<path d="M301.176 0H271.059V30.1176H301.176V0Z" fill="#FEB8D2"/>
<path d="M331.293 0H301.176V30.1176H331.293V0Z" fill="#FEB8D2"/>
<path d="M240.942 0H210.824V30.1176H240.942V0Z" fill="#FEB8D2"/>
<path d="M210.823 0H180.705V30.1176H210.823V0Z" fill="#FEB8D2"/>
<path d="M30.1176 210.824H0V240.942H30.1176V210.824Z" fill="#FEB8D2"/>
<path d="M30.1176 180.705H0V210.823H30.1176V180.705Z" fill="#FEB8D2"/>
<path d="M30.1176 271.059H0V301.176H30.1176V271.059Z" fill="#FEB8D2"/>
<path d="M30.1176 301.176H0V331.293H30.1176V301.176Z" fill="#FEB8D2"/>
<path d="M301.176 481.883H271.059V512H301.176V481.883Z" fill="#FEB8D2"/>
<path d="M331.293 481.883H301.176V512H331.293V481.883Z" fill="#FEB8D2"/>
<path d="M240.942 481.883H210.824V512H240.942V481.883Z" fill="#FEB8D2"/>
<path d="M210.823 481.883H180.705V512H210.823V481.883Z" fill="#FEB8D2"/>
<path d="M301.176 301.176H271.059V331.293H301.176V301.176Z" fill="#FF7AAB"/>
<path d="M240.942 301.176H210.824V331.293H240.942V301.176Z" fill="#FF7AAB"/>
<path d="M271.059 301.176H240.941V331.293H271.059V301.176Z" fill="#FF7AAB"/>
<path d="M331.293 271.059H301.176V301.176H331.293V271.059Z" fill="#FF7AAB"/>
<path d="M331.293 240.941H301.176V271.059H331.293V240.941Z" fill="#FF7AAB"/>
<path d="M331.293 210.824H301.176V240.942H331.293V210.824Z" fill="#FF7AAB"/>
<path d="M301.176 180.705H271.059V210.823H301.176V180.705Z" fill="#FF7AAB"/>
<path d="M271.059 180.705H240.941V210.823H271.059V180.705Z" fill="#FF7AAB"/>
<path d="M240.942 180.705H210.824V210.823H240.942V180.705Z" fill="#FF7AAB"/>
<path d="M210.823 210.824H180.705V240.942H210.823V210.824Z" fill="#FF7AAB"/>
<path d="M210.823 240.941H180.705V271.059H210.823V240.941Z" fill="#FF7AAB"/>
<path d="M210.823 271.059H180.705V301.176H210.823V271.059Z" fill="#FF7AAB"/>
<path d="M361.413 240.941H331.295V271.059H361.413V240.941Z" fill="#FF7AAB"/>
<path d="M391.53 240.941H361.412V271.059H391.53V240.941Z" fill="#FF7AAB"/>
<path d="M271.059 331.295H240.941V361.413H271.059V331.295Z" fill="#FF7AAB"/>
<path d="M271.059 361.412H240.941V391.53H271.059V361.412Z" fill="#FF7AAB"/>
<path d="M180.706 240.941H150.588V271.059H180.706V240.941Z" fill="#FF7AAB"/>
<path d="M150.588 240.941H120.471V271.059H150.588V240.941Z" fill="#FF7AAB"/>
<path d="M271.059 150.588H240.941V180.706H271.059V150.588Z" fill="#FF7AAB"/>
<path d="M271.059 120.471H240.941V150.588H271.059V120.471Z" fill="#FF7AAB"/>
<path d="M271.059 421.646H240.941V451.764H271.059V421.646Z" fill="#FF7AAB"/>
<path d="M451.764 240.941H421.646V271.059H451.764V240.941Z" fill="#FF7AAB"/>
<path d="M271.059 60.2344H240.941V90.352H271.059V60.2344Z" fill="#FF7AAB"/>
<path d="M90.352 240.941H60.2344V271.059H90.352V240.941Z" fill="#FF7AAB"/>
<path d="M210.823 301.176H180.705V331.293H210.823V301.176Z" fill="#FEB8D2"/>
<path d="M210.823 180.705H180.705V210.823H210.823V180.705Z" fill="#FEB8D2"/>
<path d="M271.059 210.824H240.941V240.942H271.059V210.824Z" fill="#F5E78E"/>
<path d="M301.176 240.941H271.059V271.059H301.176V240.941Z" fill="#F5E78E"/>
</g>
<defs>
<clipPath id="clip0_1280_167">
<rect width="512" height="512" fill="white"/>
</clipPath>
</defs>
</svg>
