<svg width="260" height="260" viewBox="0 0 260 260" fill="none" xmlns="http://www.w3.org/2000/svg">
<path d="M137.646 122.352H122.352V137.646H137.646V122.352Z" fill="#F5E78E"/>
<path d="M122.353 122.352H107.059V137.646H122.353V122.352Z" fill="#F5E78E"/>
<path d="M137.646 137.648H122.352V152.942H137.646V137.648Z" fill="#F5E78E"/>
<path d="M152.942 137.648H137.648V152.942H152.942V137.648Z" fill="#FEB8D2"/>
<path d="M152.942 107.059H137.648V122.353H152.942V107.059Z" fill="#FEB8D2"/>
<path d="M122.353 137.648H107.059V152.942H122.353V137.648Z" fill="#FEB8D2"/>
<path d="M122.353 107.059H107.059V122.353H122.353V107.059Z" fill="#FEB8D2"/>
<path d="M168.235 91.7656H152.941V107.06H168.235V91.7656Z" fill="#FEB8D2"/>
<path d="M168.235 152.941H152.941V168.235H168.235V152.941Z" fill="#FEB8D2"/>
<path d="M183.528 168.234H168.234V183.528H183.528V168.234Z" fill="#FEB8D2"/>
<path d="M183.528 76.4688H168.234V91.7628H183.528V76.4688Z" fill="#FEB8D2"/>
<path d="M91.7628 76.4688H76.4688V91.7628H91.7628V76.4688Z" fill="#FEB8D2"/>
<path d="M91.7628 61.1758H76.4688V76.4698H91.7628V61.1758Z" fill="white"/>
<path d="M91.7628 45.8828H76.4688V61.1768H91.7628V45.8828Z" fill="white"/>
<path d="M91.7628 30.5898H76.4688V45.8839H91.7628V30.5898Z" fill="white"/>
<path d="M107.06 76.4688H91.7656V91.7628H107.06V76.4688Z" fill="white"/>
<path d="M122.353 76.4688H107.059V91.7628H122.353V76.4688Z" fill="white"/>
<path d="M122.353 61.1758H107.059V76.4698H122.353V61.1758Z" fill="white"/>
<path d="M107.06 61.1758H91.7656V76.4698H107.06V61.1758Z" fill="white"/>
<path d="M107.06 45.8828H91.7656V61.1768H107.06V45.8828Z" fill="white"/>
<path d="M107.06 30.5898H91.7656V45.8839H107.06V30.5898Z" fill="white"/>
<path d="M107.06 15.293H91.7656V30.587H107.06V15.293Z" fill="white"/>
<path d="M122.353 15.293H107.059V30.587H122.353V15.293Z" fill="white"/>
<path d="M122.353 30.5898H107.059V45.8839H122.353V30.5898Z" fill="white"/>
<path d="M122.353 45.8828H107.059V61.1768H122.353V45.8828Z" fill="white"/>
<path d="M137.646 45.8828H122.352V61.1768H137.646V45.8828Z" fill="white"/>
<path d="M152.942 15.293H137.648V30.587H152.942V15.293Z" fill="white"/>
<path d="M168.235 15.293H152.941V30.587H168.235V15.293Z" fill="white"/>
<path d="M152.942 30.5898H137.648V45.8839H152.942V30.5898Z" fill="white"/>
<path d="M168.235 30.5898H152.941V45.8839H168.235V30.5898Z" fill="white"/>
<path d="M183.528 30.5898H168.234V45.8839H183.528V30.5898Z" fill="white"/>
<path d="M152.942 45.8828H137.648V61.1768H152.942V45.8828Z" fill="white"/>
<path d="M168.235 45.8828H152.941V61.1768H168.235V45.8828Z" fill="white"/>
<path d="M183.528 45.8828H168.234V61.1768H183.528V45.8828Z" fill="white"/>
<path d="M183.528 61.1758H168.234V76.4698H183.528V61.1758Z" fill="white"/>
<path d="M168.235 61.1758H152.941V76.4698H168.235V61.1758Z" fill="white"/>
<path d="M152.942 61.1758H137.648V76.4698H152.942V61.1758Z" fill="white"/>
<path d="M168.235 76.4688H152.941V91.7628H168.235V76.4688Z" fill="white"/>
<path d="M152.942 76.4688H137.648V91.7628H152.942V76.4688Z" fill="white"/>
<path d="M45.8839 76.4688H30.5898V91.7628H45.8839V76.4688Z" fill="white"/>
<path d="M91.7628 107.059H76.4688V122.353H91.7628V107.059Z" fill="white"/>
<path d="M91.7628 91.7656H76.4688V107.06H91.7628V91.7656Z" fill="white"/>
<path d="M76.4698 76.4688H61.1758V91.7628H76.4698V76.4688Z" fill="white"/>
<path d="M61.1768 76.4688H45.8828V91.7628H61.1768V76.4688Z" fill="white"/>
<path d="M91.7628 152.941H76.4688V168.235H91.7628V152.941Z" fill="white"/>
<path d="M91.7628 137.648H76.4688V152.942H91.7628V137.648Z" fill="white"/>
<path d="M76.4698 91.7656H61.1758V107.06H76.4698V91.7656Z" fill="white"/>
<path d="M61.1768 91.7656H45.8828V107.06H61.1768V91.7656Z" fill="white"/>
<path d="M45.8839 91.7656H30.5898V107.06H45.8839V91.7656Z" fill="white"/>
<path d="M30.587 91.7656H15.293V107.06H30.587V91.7656Z" fill="white"/>
<path d="M30.587 107.059H15.293V122.353H30.587V107.059Z" fill="white"/>
<path d="M45.8839 107.059H30.5898V122.353H45.8839V107.059Z" fill="white"/>
<path d="M61.1768 107.059H45.8828V122.353H61.1768V107.059Z" fill="white"/>
<path d="M76.4698 107.059H61.1758V122.353H76.4698V107.059Z" fill="white"/>
<path d="M61.1768 122.352H45.8828V137.646H61.1768V122.352Z" fill="white"/>
<path d="M76.4698 137.648H61.1758V152.942H76.4698V137.648Z" fill="white"/>
<path d="M76.4698 152.941H61.1758V168.235H76.4698V152.941Z" fill="white"/>
<path d="M76.4698 168.234H61.1758V183.528H76.4698V168.234Z" fill="white"/>
<path d="M107.06 168.234H91.7656V183.528H107.06V168.234Z" fill="white"/>
<path d="M122.353 168.234H107.059V183.528H122.353V168.234Z" fill="white"/>
<path d="M122.353 183.531H107.059V198.825H122.353V183.531Z" fill="white"/>
<path d="M91.7628 183.531H76.4688V198.825H91.7628V183.531Z" fill="white"/>
<path d="M107.06 183.531H91.7656V198.825H107.06V183.531Z" fill="white"/>
<path d="M91.7628 198.824H76.4688V214.118H91.7628V198.824Z" fill="white"/>
<path d="M91.7628 214.117H76.4688V229.411H91.7628V214.117Z" fill="white"/>
<path d="M107.06 229.406H91.7656V244.7H107.06V229.406Z" fill="white"/>
<path d="M107.06 198.824H91.7656V214.118H107.06V198.824Z" fill="white"/>
<path d="M107.06 214.117H91.7656V229.411H107.06V214.117Z" fill="white"/>
<path d="M122.353 198.824H107.059V214.118H122.353V198.824Z" fill="white"/>
<path d="M122.353 214.117H107.059V229.411H122.353V214.117Z" fill="white"/>
<path d="M122.353 229.406H107.059V244.7H122.353V229.406Z" fill="white"/>
<path d="M137.646 198.824H122.352V214.118H137.646V198.824Z" fill="white"/>
<path d="M152.942 168.234H137.648V183.528H152.942V168.234Z" fill="white"/>
<path d="M168.235 168.234H152.941V183.528H168.235V168.234Z" fill="white"/>
<path d="M152.942 183.531H137.648V198.825H152.942V183.531Z" fill="white"/>
<path d="M168.235 183.531H152.941V198.825H168.235V183.531Z" fill="white"/>
<path d="M183.528 183.531H168.234V198.825H183.528V183.531Z" fill="white"/>
<path d="M152.942 198.824H137.648V214.118H152.942V198.824Z" fill="white"/>
<path d="M168.235 198.824H152.941V214.118H168.235V198.824Z" fill="white"/>
<path d="M183.528 198.824H168.234V214.118H183.528V198.824Z" fill="white"/>
<path d="M183.528 214.117H168.234V229.411H183.528V214.117Z" fill="white"/>
<path d="M168.235 214.117H152.941V229.411H168.235V214.117Z" fill="white"/>
<path d="M152.942 214.117H137.648V229.411H152.942V214.117Z" fill="white"/>
<path d="M168.235 229.406H152.941V244.7H168.235V229.406Z" fill="white"/>
<path d="M152.942 229.406H137.648V244.7H152.942V229.406Z" fill="white"/>
<path d="M183.528 137.648H168.234V152.942H183.528V137.648Z" fill="white"/>
<path d="M183.528 152.941H168.234V168.235H183.528V152.941Z" fill="white"/>
<path d="M214.118 122.352H198.824V137.646H214.118V122.352Z" fill="white"/>
<path d="M198.825 137.648H183.531V152.942H198.825V137.648Z" fill="white"/>
<path d="M214.118 137.648H198.824V152.942H214.118V137.648Z" fill="white"/>
<path d="M229.411 137.648H214.117V152.942H229.411V137.648Z" fill="white"/>
<path d="M244.7 137.648H229.406V152.942H244.7V137.648Z" fill="white"/>
<path d="M198.825 152.941H183.531V168.235H198.825V152.941Z" fill="white"/>
<path d="M214.118 152.941H198.824V168.235H214.118V152.941Z" fill="white"/>
<path d="M229.411 152.941H214.117V168.235H229.411V152.941Z" fill="white"/>
<path d="M244.7 152.941H229.406V168.235H244.7V152.941Z" fill="white"/>
<path d="M198.825 168.234H183.531V183.528H198.825V168.234Z" fill="white"/>
<path d="M214.118 168.234H198.824V183.528H214.118V168.234Z" fill="white"/>
<path d="M229.411 168.234H214.117V183.528H229.411V168.234Z" fill="white"/>
<path d="M183.528 107.059H168.234V122.353H183.528V107.059Z" fill="white"/>
<path d="M198.825 107.059H183.531V122.353H198.825V107.059Z" fill="white"/>
<path d="M183.528 91.7656H168.234V107.06H183.528V91.7656Z" fill="white"/>
<path d="M198.825 76.4688H183.531V91.7628H198.825V76.4688Z" fill="white"/>
<path d="M198.825 91.7656H183.531V107.06H198.825V91.7656Z" fill="white"/>
<path d="M214.118 76.4688H198.824V91.7628H214.118V76.4688Z" fill="white"/>
<path d="M229.411 76.4688H214.117V91.7628H229.411V76.4688Z" fill="white"/>
<path d="M214.118 91.7656H198.824V107.06H214.118V91.7656Z" fill="white"/>
<path d="M229.411 91.7656H214.117V107.06H229.411V91.7656Z" fill="white"/>
<path d="M244.7 91.7656H229.406V107.06H244.7V91.7656Z" fill="white"/>
<path d="M244.7 107.059H229.406V122.353H244.7V107.059Z" fill="white"/>
<path d="M229.411 107.059H214.117V122.353H229.411V107.059Z" fill="white"/>
<path d="M214.118 107.059H198.824V122.353H214.118V107.059Z" fill="white"/>
<path d="M183.528 137.648H168.234V152.942H183.528V137.648Z" fill="white"/>
<path d="M61.1768 137.648H45.8828V152.942H61.1768V137.648Z" fill="white"/>
<path d="M45.8839 137.648H30.5898V152.942H45.8839V137.648Z" fill="white"/>
<path d="M30.587 137.648H15.293V152.942H30.587V137.648Z" fill="white"/>
<path d="M30.587 152.941H15.293V168.235H30.587V152.941Z" fill="white"/>
<path d="M45.8839 152.941H30.5898V168.235H45.8839V152.941Z" fill="white"/>
<path d="M61.1768 152.941H45.8828V168.235H61.1768V152.941Z" fill="white"/>
<path d="M45.8839 168.234H30.5898V183.528H45.8839V168.234Z" fill="white"/>
<path d="M61.1768 168.234H45.8828V183.528H61.1768V168.234Z" fill="white"/>
<path d="M91.7628 168.234H76.4688V183.528H91.7628V168.234Z" fill="#FEB8D2"/>
<path d="M198.825 183.531H183.531V198.825H198.825V183.531Z" fill="#FEB8D2"/>
<path d="M214.118 183.531H198.824V198.825H214.118V183.531Z" fill="#FEB8D2"/>
<path d="M229.411 183.531H214.117V198.825H229.411V183.531Z" fill="#FEB8D2"/>
<path d="M198.825 198.824H183.531V214.118H198.825V198.824Z" fill="#FEB8D2"/>
<path d="M198.825 214.117H183.531V229.411H198.825V214.117Z" fill="#FEB8D2"/>
<path d="M198.825 61.1758H183.531V76.4698H198.825V61.1758Z" fill="#FEB8D2"/>
<path d="M214.118 61.1758H198.824V76.4698H214.118V61.1758Z" fill="#FEB8D2"/>
<path d="M229.411 61.1758H214.117V76.4698H229.411V61.1758Z" fill="#FEB8D2"/>
<path d="M198.825 45.8828H183.531V61.1768H198.825V45.8828Z" fill="#FEB8D2"/>
<path d="M198.825 30.5898H183.531V45.8839H198.825V30.5898Z" fill="#FEB8D2"/>
<path d="M76.4698 61.1758H61.1758V76.4698H76.4698V61.1758Z" fill="#FEB8D2"/>
<path d="M76.4698 45.8828H61.1758V61.1768H76.4698V45.8828Z" fill="#FEB8D2"/>
<path d="M76.4698 30.5898H61.1758V45.8839H76.4698V30.5898Z" fill="#FEB8D2"/>
<path d="M61.1768 61.1758H45.8828V76.4698H61.1768V61.1758Z" fill="#FEB8D2"/>
<path d="M45.8839 61.1758H30.5898V76.4698H45.8839V61.1758Z" fill="#FEB8D2"/>
<path d="M76.4698 183.531H61.1758V198.825H76.4698V183.531Z" fill="#FEB8D2"/>
<path d="M76.4698 198.824H61.1758V214.118H76.4698V198.824Z" fill="#FEB8D2"/>
<path d="M76.4698 214.117H61.1758V229.411H76.4698V214.117Z" fill="#FEB8D2"/>
<path d="M61.1768 183.531H45.8828V198.825H61.1768V183.531Z" fill="#FEB8D2"/>
<path d="M45.8839 183.531H30.5898V198.825H45.8839V183.531Z" fill="#FEB8D2"/>
<path d="M30.587 168.234H15.293V183.528H30.587V168.234Z" fill="#FEB8D2"/>
<path d="M91.7628 229.406H76.4688V244.7H91.7628V229.406Z" fill="#FEB8D2"/>
<path d="M183.528 229.406H168.234V244.7H183.528V229.406Z" fill="#FEB8D2"/>
<path d="M244.7 168.234H229.406V183.528H244.7V168.234Z" fill="#FEB8D2"/>
<path d="M244.7 76.4688H229.406V91.7628H244.7V76.4688Z" fill="#FEB8D2"/>
<path d="M183.528 15.293H168.234V30.587H183.528V15.293Z" fill="#FEB8D2"/>
<path d="M91.7628 15.293H76.4688V30.587H91.7628V15.293Z" fill="#FEB8D2"/>
<path d="M30.587 76.4688H15.293V91.7628H30.587V76.4688Z" fill="#FEB8D2"/>
<path d="M214.118 198.824H198.824V214.118H214.118V198.824Z" fill="#619D29"/>
<path d="M229.411 198.824H214.117V214.118H229.411V198.824Z" fill="#B5E48A"/>
<path d="M229.411 45.8828H214.117V61.1768H229.411V45.8828Z" fill="#B5E48A"/>
<path d="M214.118 30.5898H198.824V45.8839H214.118V30.5898Z" fill="#B5E48A"/>
<path d="M229.411 30.5898H214.117V45.8839H229.411V30.5898Z" fill="#B5E48A"/>
<path d="M45.8839 198.824H30.5898V214.118H45.8839V198.824Z" fill="#B5E48A"/>
<path d="M45.8839 214.117H30.5898V229.411H45.8839V214.117Z" fill="#B5E48A"/>
<path d="M61.1768 214.117H45.8828V229.411H61.1768V214.117Z" fill="#B5E48A"/>
<path d="M45.8839 45.8828H30.5898V61.1768H45.8839V45.8828Z" fill="#B5E48A"/>
<path d="M45.8839 30.5898H30.5898V45.8839H45.8839V30.5898Z" fill="#B5E48A"/>
<path d="M61.1768 30.5898H45.8828V45.8839H61.1768V30.5898Z" fill="#B5E48A"/>
<path d="M229.411 214.117H214.117V229.411H229.411V214.117Z" fill="#B5E48A"/>
<path d="M214.118 214.117H198.824V229.411H214.118V214.117Z" fill="#B5E48A"/>
<path d="M214.118 45.8828H198.824V61.1768H214.118V45.8828Z" fill="#619D29"/>
<path d="M61.1768 198.824H45.8828V214.118H61.1768V198.824Z" fill="#619D29"/>
<path d="M61.1768 45.8828H45.8828V61.1768H61.1768V45.8828Z" fill="#619D29"/>
<path d="M244.7 122.352H229.406V137.646H244.7V122.352Z" fill="#FEB8D2"/>
<path d="M137.646 229.406H122.352V244.7H137.646V229.406Z" fill="#FEB8D2"/>
<path d="M137.646 15.293H122.352V30.587H137.646V15.293Z" fill="#FEB8D2"/>
<path d="M30.587 122.352H15.293V137.646H30.587V122.352Z" fill="#FEB8D2"/>
<path d="M260.001 137.648H244.707V152.942H260.001V137.648Z" fill="#FEB8D2"/>
<path d="M260.001 152.941H244.707V168.235H260.001V152.941Z" fill="#FEB8D2"/>
<path d="M260.001 107.059H244.707V122.353H260.001V107.059Z" fill="#FEB8D2"/>
<path d="M260.001 91.7656H244.707V107.06H260.001V91.7656Z" fill="#FEB8D2"/>
<path d="M152.942 0H137.648V15.294H152.942V0Z" fill="#FEB8D2"/>
<path d="M168.235 0H152.941V15.294H168.235V0Z" fill="#FEB8D2"/>
<path d="M122.353 0H107.059V15.294H122.353V0Z" fill="#FEB8D2"/>
<path d="M107.06 0H91.7656V15.294H107.06V0Z" fill="#FEB8D2"/>
<path d="M15.294 107.059H0V122.353H15.294V107.059Z" fill="#FEB8D2"/>
<path d="M15.294 91.7656H0V107.06H15.294V91.7656Z" fill="#FEB8D2"/>
<path d="M15.294 137.648H0V152.942H15.294V137.648Z" fill="#FEB8D2"/>
<path d="M15.294 152.941H0V168.235H15.294V152.941Z" fill="#FEB8D2"/>
<path d="M152.942 244.707H137.648V260.001H152.942V244.707Z" fill="#FEB8D2"/>
<path d="M168.235 244.707H152.941V260.001H168.235V244.707Z" fill="#FEB8D2"/>
<path d="M122.353 244.707H107.059V260.001H122.353V244.707Z" fill="#FEB8D2"/>
<path d="M107.06 244.707H91.7656V260.001H107.06V244.707Z" fill="#FEB8D2"/>
<path d="M152.942 152.941H137.648V168.235H152.942V152.941Z" fill="#FF7AAB"/>
<path d="M122.353 152.941H107.059V168.235H122.353V152.941Z" fill="#FF7AAB"/>
<path d="M137.646 152.941H122.352V168.235H137.646V152.941Z" fill="#FF7AAB"/>
<path d="M168.235 137.648H152.941V152.942H168.235V137.648Z" fill="#FF7AAB"/>
<path d="M168.235 122.352H152.941V137.646H168.235V122.352Z" fill="#FF7AAB"/>
<path d="M168.235 107.059H152.941V122.353H168.235V107.059Z" fill="#FF7AAB"/>
<path d="M152.942 91.7656H137.648V107.06H152.942V91.7656Z" fill="#FF7AAB"/>
<path d="M137.646 91.7656H122.352V107.06H137.646V91.7656Z" fill="#FF7AAB"/>
<path d="M122.353 91.7656H107.059V107.06H122.353V91.7656Z" fill="#FF7AAB"/>
<path d="M107.06 107.059H91.7656V122.353H107.06V107.059Z" fill="#FF7AAB"/>
<path d="M107.06 122.352H91.7656V137.646H107.06V122.352Z" fill="#FF7AAB"/>
<path d="M107.06 137.648H91.7656V152.942H107.06V137.648Z" fill="#FF7AAB"/>
<path d="M183.528 122.352H168.234V137.646H183.528V122.352Z" fill="#FF7AAB"/>
<path d="M198.825 122.352H183.531V137.646H198.825V122.352Z" fill="#FF7AAB"/>
<path d="M137.646 168.234H122.352V183.528H137.646V168.234Z" fill="#FF7AAB"/>
<path d="M137.646 183.531H122.352V198.825H137.646V183.531Z" fill="#FF7AAB"/>
<path d="M91.7628 122.352H76.4688V137.646H91.7628V122.352Z" fill="#FF7AAB"/>
<path d="M76.4698 122.352H61.1758V137.646H76.4698V122.352Z" fill="#FF7AAB"/>
<path d="M137.646 76.4688H122.352V91.7628H137.646V76.4688Z" fill="#FF7AAB"/>
<path d="M137.646 61.1758H122.352V76.4698H137.646V61.1758Z" fill="#FF7AAB"/>
<path d="M137.646 214.117H122.352V229.411H137.646V214.117Z" fill="#FF7AAB"/>
<path d="M229.411 122.352H214.117V137.646H229.411V122.352Z" fill="#FF7AAB"/>
<path d="M137.646 30.5898H122.352V45.8839H137.646V30.5898Z" fill="#FF7AAB"/>
<path d="M45.8839 122.352H30.5898V137.646H45.8839V122.352Z" fill="#FF7AAB"/>
<path d="M107.06 152.941H91.7656V168.235H107.06V152.941Z" fill="#FEB8D2"/>
<path d="M107.06 91.7656H91.7656V107.06H107.06V91.7656Z" fill="#FEB8D2"/>
<path d="M137.646 107.059H122.352V122.353H137.646V107.059Z" fill="#F5E78E"/>
<path d="M152.942 122.352H137.648V137.646H152.942V122.352Z" fill="#F5E78E"/>
</svg>
